# xmcd CD database file
# Copyright (C) 1993-1998 Ti Kan
# 
# Track frame offsets:
#     150
#     14418
#     23370
#     34908
#     44878
#     57073
#     70445
#     81935
#     93185
#     108280
#     120335
#     131295
#     146675
#     160063
#     174588
#     187163
#     199040
#     211263
#     222650
#     237350
# 
# Disc length: 3303 seconds
# 
# Revision: 1
# Processed by: cddbd v1.4b41PL1 Copyright (c) Steve Scherf et al.
# Submitted via: DiscPlay 4.0.4
# 
DISCID=1c0ce514
DTITLE=Alfredo de Angelis - Alfredo de Angelis y EL TANGO con su orquesta ti
DTITLE=pica Argentina
DYEAR=1900
DGENRE=
TTITLE0=Obsesion
TTITLE1=Calvario
TTITLE2=Ilusion azul
TTITLE3=Victoria
TTITLE4=Madre hay una sola
TTITLE5=Loca
TTITLE6=Son cosas mias
TTITLE7=Me embrujaste
TTITLE8=Milonga celestial
TTITLE9=No nos veremos mas
TTITLE10=La trampa
TTITLE11=La pastora
TTITLE12=He matado un hombre
TTITLE13=Ya estamos iguales
TTITLE14=Virgen de la serrania
TTITLE15=Mi noche triste
TTITLE16=El amanecer
TTITLE17=Otario que andas penando
TTITLE18=Pregonera
TTITLE19=Asi se baila hoy
EXTD=
EXTT0=
EXTT1=
EXTT2=
EXTT3=
EXTT4=
EXTT5=
EXTT6=
EXTT7=
EXTT8=
EXTT9=
EXTT10=
EXTT11=
EXTT12=
EXTT13=
EXTT14=
EXTT15=
EXTT16=
EXTT17=
EXTT18=
EXTT19=
PLAYORDER=
